<svg xmlns="http://www.w3.org/2000/svg" xmlns:svg="http://www.w3.org/2000/svg" id="svg1428" width="24" height="24" fill="#000" version="1.1" viewBox="0 0 24 24"><path style="color:#000;fill:#ff5630;fill-opacity:1;stroke-width:.0878234;stroke-linecap:round;stroke-linejoin:round;-inkscape-stroke:none" id="rect3554" d="M 12.368788,3.4216973 A 1.2171741,1.2171741 0 0 0 11.737045,3.5985441 L 5.3904546,7.4534983 a 1.2170524,1.2170524 0 0 0 -0.4082396,1.672069 1.2170524,1.2170524 0 0 0 1.6718977,0.408412 l 5.7146753,-3.471242 5.714676,3.471242 a 1.2170524,1.2170524 0 0 0 1.671897,-0.408412 1.2170524,1.2170524 0 0 0 -0.408239,-1.672069 L 13.000702,3.5985441 A 1.2171741,1.2171741 0 0 0 12.368788,3.4216973 Z"/><path style="color:#000;fill:#ff7452;fill-opacity:1;stroke:none;stroke-width:.0878234;stroke-linecap:round;stroke-linejoin:round;-inkscape-stroke:none" id="path9314" d="m 12.368788,8.6910833 a 1.2171741,1.2171741 0 0 0 -0.631743,0.176847 L 5.3904546,12.722883 a 1.2170524,1.2170524 0 0 0 -0.4082396,1.67207 1.2170524,1.2170524 0 0 0 1.6718977,0.408411 l 5.7146753,-3.471242 5.714676,3.471242 a 1.2170524,1.2170524 0 0 0 1.671897,-0.408411 1.2170524,1.2170524 0 0 0 -0.408239,-1.67207 l -6.34642,-3.8549527 a 1.2171741,1.2171741 0 0 0 -0.631914,-0.176847 z"/><path style="color:#000;fill:#ff8f73;fill-opacity:1;stroke:none;stroke-width:.0878234;stroke-linecap:round;stroke-linejoin:round;-inkscape-stroke:none" id="path9316" d="m 12.368788,14.136115 a 1.2171741,1.2171741 0 0 0 -0.631743,0.176846 l -6.3465904,3.854954 a 1.2170524,1.2170524 0 0 0 -0.4082396,1.672069 1.2170524,1.2170524 0 0 0 1.6718977,0.408412 l 5.7146753,-3.471242 5.714676,3.471242 a 1.2170524,1.2170524 0 0 0 1.671897,-0.408412 1.2170524,1.2170524 0 0 0 -0.408239,-1.672069 l -6.34642,-3.854954 a 1.2171741,1.2171741 0 0 0 -0.631914,-0.176846 z"/></svg>