<svg xmlns="http://www.w3.org/2000/svg" xmlns:svg="http://www.w3.org/2000/svg" xmlns:xlink="http://www.w3.org/1999/xlink" id="svg8" width="190" height="190" version="1.1" viewBox="0 0 50.271 50.271"><defs id="defs2"><linearGradient id="linearGradient1002"><stop style="stop-color:#4ff49e;stop-opacity:1" id="stop998" offset="0"/><stop style="stop-color:#6da1f5;stop-opacity:1" id="stop1000" offset="1"/></linearGradient><linearGradient id="linearGradient934"><stop style="stop-color:#090909;stop-opacity:.96862745" id="stop930" offset="0"/><stop style="stop-color:#fff;stop-opacity:0" id="stop932" offset="1"/></linearGradient><linearGradient id="linearGradient873"><stop style="stop-color:#4d4d4d;stop-opacity:1" id="stop869" offset="0"/><stop style="stop-color:#656565;stop-opacity:0" id="stop871" offset="1"/></linearGradient><linearGradient id="linearGradient867"><stop id="stop863" offset="0" style="stop-color:#b4b4b4;stop-opacity:1"/><stop id="stop865" offset="1" style="stop-color:#fff;stop-opacity:1"/></linearGradient><linearGradient id="linearGradient843"><stop style="stop-color:#000;stop-opacity:1" id="stop839" offset="0"/><stop style="stop-color:#434343;stop-opacity:.88235295" id="stop841" offset="1"/></linearGradient><linearGradient id="linearGradient845" x1="59.672" x2="87.225" y1="101.946" y2="122.55" gradientTransform="matrix(1.302925,0,0,1.302925,-21.025152,-36.28416)" gradientUnits="userSpaceOnUse" xlink:href="#linearGradient843"/><linearGradient id="linearGradient861" x1="75.625" x2="93.5" y1="94.622" y2="108.513" gradientTransform="matrix(1.302925,0,0,1.302925,-26.151418,-32.86437)" gradientUnits="userSpaceOnUse" xlink:href="#linearGradient867"/><linearGradient id="linearGradient875" x1="59.672" x2="87.091" y1="101.946" y2="105.099" gradientTransform="matrix(1.3104386,0,0,1.302925,-21.473506,-36.28416)" gradientUnits="userSpaceOnUse" xlink:href="#linearGradient873"/><linearGradient id="linearGradient936" x1="36.174" x2="173.808" y1="59.947" y2="182.28" gradientTransform="matrix(1.1448299,0,0,1.1448299,-8.9807055,-18.679786)" gradientUnits="userSpaceOnUse" xlink:href="#linearGradient934"/><linearGradient id="linearGradient1468" x1="51.147" x2="101.418" y1="81.516" y2="131.786" gradientUnits="userSpaceOnUse" xlink:href="#linearGradient1002"/></defs><metadata id="metadata5"/><g id="layer1" transform="translate(-51.147327,-81.515579)"><path style="fill:url(#linearGradient1468);fill-opacity:1;stroke-width:.26458332;opacity:1" id="rect283" d="M 51.147327,81.515579 H 101.41816 V 131.78641 H 51.147327 Z"/><path id="path885" style="opacity:.278;fill:url(#linearGradient936);fill-opacity:1;stroke:none;stroke-width:1.14483px;stroke-linecap:butt;stroke-linejoin:miter;stroke-opacity:1" d="M 165.92383 31.970703 L 151.77344 47.677734 L 69.847656 71.355469 L 21.074219 158.26367 L 52.853516 190 L 190 190 L 190 48.976562 L 165.92383 31.970703 z" transform="matrix(0.26458333,0,0,0.26458333,51.147327,81.515579)"/><rect style="fill:url(#linearGradient845);fill-opacity:1;stroke:none;stroke-width:.16339;stroke-opacity:1" id="rect283-1" width="35.899" height="26.845" x="56.723" y="96.544"/><g aria-label="&gt;_" style="font-style:normal;font-weight:400;font-size:8.48274px;line-height:1.25;font-family:sans-serif;letter-spacing:0;word-spacing:0;fill:#000;fill-opacity:1;stroke:none;stroke-width:.212069" id="text320" transform="matrix(1.302925,0,0,1.302925,-20.839797,-37.163349)"><path d="m 62.57046,116.77004 v -1.31201 l 3.280018,-1.45904 q 0.158346,-0.0679 0.305381,-0.1018 0.158346,-0.0452 0.282761,-0.0679 0.135725,-0.0113 0.271449,-0.0226 v -0.0905 q -0.135724,-0.0113 -0.271449,-0.0452 -0.124415,-0.0226 -0.282761,-0.0566 -0.147035,-0.0452 -0.305381,-0.1131 l -3.280018,-1.45904 v -1.32332 l 5.067063,2.31863 v 1.4138 z" style="font-style:normal;font-variant:normal;font-weight:700;font-stretch:normal;font-size:11.3104px;font-family:'JetBrains Mono';-inkscape-font-specification:'JetBrains Mono, Bold';font-variant-ligatures:normal;font-variant-caps:normal;font-variant-numeric:normal;font-feature-settings:normal;text-align:start;writing-mode:lr-tb;text-anchor:start;fill:#fff;stroke-width:.212069" id="path1011"/><path d="m 69.17132,117.75404 h 5.428996 v 1.27808 H 69.17132 Z" style="font-style:normal;font-variant:normal;font-weight:700;font-stretch:normal;font-size:11.3104px;font-family:'JetBrains Mono';-inkscape-font-specification:'JetBrains Mono, Bold';font-variant-ligatures:normal;font-variant-caps:normal;font-variant-numeric:normal;font-feature-settings:normal;text-align:start;writing-mode:lr-tb;text-anchor:start;fill:#fff;stroke-width:.212069" id="path1013"/></g><rect style="fill:url(#linearGradient875);fill-opacity:1;stroke-width:.0815418" id="rect283-1-9" width="36.106" height="6.648" x="56.723" y="96.544"/><path style="fill:url(#linearGradient861);fill-opacity:1;stroke-width:1.203" id="path403" d="M 93.687597,89.445767 H 73.874439 c -1.36217,0 -2.476659,1.051813 -2.476659,2.337352 v 21.036241 l 4.9533,-4.67471 h 17.336517 c 1.362173,0 2.476651,-1.05183 2.476651,-2.3374 V 91.783119 c 0,-1.285539 -1.114478,-2.337352 -2.476651,-2.337352 z M 80.066048,99.963882 H 77.58941 v -2.337346 h 2.476638 z m 4.953301,0 h -2.476662 v -2.337346 h 2.476662 z m 4.953276,0 H 87.49599 v -2.337346 h 2.476635 z"/></g></svg>