<svg xmlns="http://www.w3.org/2000/svg" xmlns:svg="http://www.w3.org/2000/svg" xmlns:xlink="http://www.w3.org/1999/xlink" id="svg8" width="190" height="190" version="1.1" viewBox="0 0 50.271 50.271"><defs id="defs2"><linearGradient id="linearGradient13319"><stop style="stop-color:#d3d3d3;stop-opacity:1" id="stop13315" offset="0"/><stop style="stop-color:#feffff;stop-opacity:1" id="stop13317" offset="1"/></linearGradient><linearGradient id="linearGradient873"><stop style="stop-color:#4d4d4d;stop-opacity:1" id="stop869" offset="0"/><stop style="stop-color:#656565;stop-opacity:0" id="stop871" offset="1"/></linearGradient><linearGradient id="linearGradient843"><stop style="stop-color:#000;stop-opacity:1" id="stop839" offset="0"/><stop style="stop-color:#434343;stop-opacity:.88235295" id="stop841" offset="1"/></linearGradient><linearGradient id="linearGradient845" x1="59.672" x2="87.225" y1="101.946" y2="122.55" gradientTransform="matrix(1.8468129,0,0,2.4504646,-59.145971,-168.39158)" gradientUnits="userSpaceOnUse" xlink:href="#linearGradient843"/><linearGradient id="linearGradient875" x1="59.672" x2="87.091" y1="101.946" y2="105.099" gradientTransform="matrix(1.857463,0,0,1.8468129,-59.691076,-106.75962)" gradientUnits="userSpaceOnUse" xlink:href="#linearGradient873"/><linearGradient id="linearGradient13321" x1="51.147" x2="101.418" y1="81.516" y2="131.786" gradientUnits="userSpaceOnUse" xlink:href="#linearGradient13319"/><linearGradient id="linearGradient17874" x1="59.672" x2="87.225" y1="101.946" y2="122.55" gradientTransform="matrix(6.9800803,0,0,9.2615985,-451.89327,-729.32957)" gradientUnits="userSpaceOnUse" xlink:href="#linearGradient843"/><linearGradient id="linearGradient17878" x1="51.147" x2="101.418" y1="81.516" y2="131.786" gradientTransform="matrix(3.7795276,0,0,3.7795276,-228.34944,-92.88895)" gradientUnits="userSpaceOnUse" xlink:href="#linearGradient13319"/></defs><metadata id="metadata5"/><g id="layer2" style="display:inline"><path style="opacity:1;fill:url(#linearGradient13321);fill-opacity:1;stroke-width:.264583" id="rect283" d="M 51.147327,81.515579 H 101.41816 V 131.78641 H 51.147327 Z" transform="translate(-51.147326,-81.51558)"/></g><g id="layer1" transform="translate(-51.147327,-81.515579)" style="display:inline"><rect style="fill:url(#linearGradient845);fill-opacity:1;stroke:none;stroke-width:.266773;stroke-opacity:1" id="rect283-1" width="50.885" height="50.489" x="51.057" y="81.424"/><g aria-label="&gt;_" style="font-style:normal;font-weight:400;font-size:8.48274px;line-height:1.25;font-family:sans-serif;letter-spacing:0;word-spacing:0;fill:#000;fill-opacity:1;stroke:none;stroke-width:.212069" id="text320" transform="matrix(2.1732354,0,0,2.1732354,-78.526808,-138.04762)"><path d="m 62.57046,116.77004 v -1.31201 l 3.280018,-1.45904 q 0.158346,-0.0679 0.305381,-0.1018 0.158346,-0.0452 0.282761,-0.0679 0.135725,-0.0113 0.271449,-0.0226 v -0.0905 q -0.135724,-0.0113 -0.271449,-0.0452 -0.124415,-0.0226 -0.282761,-0.0566 -0.147035,-0.0452 -0.305381,-0.1131 l -3.280018,-1.45904 v -1.32332 l 5.067063,2.31863 v 1.4138 z" style="font-style:normal;font-variant:normal;font-weight:700;font-stretch:normal;font-size:11.3104px;font-family:'JetBrains Mono';-inkscape-font-specification:'JetBrains Mono, Bold';font-variant-ligatures:normal;font-variant-caps:normal;font-variant-numeric:normal;font-feature-settings:normal;text-align:start;writing-mode:lr-tb;text-anchor:start;fill:#fff;stroke-width:.212069" id="path1011"/><path d="m 69.17132,117.75404 h 5.428996 v 1.27808 H 69.17132 Z" style="font-style:normal;font-variant:normal;font-weight:700;font-stretch:normal;font-size:11.3104px;font-family:'JetBrains Mono';-inkscape-font-specification:'JetBrains Mono, Bold';font-variant-ligatures:normal;font-variant-caps:normal;font-variant-numeric:normal;font-feature-settings:normal;text-align:start;writing-mode:lr-tb;text-anchor:start;fill:#fff;stroke-width:.212069" id="path1013"/></g><rect style="fill:url(#linearGradient875);fill-opacity:1;stroke-width:.11558" id="rect283-1-9" width="51.179" height="9.423" x="51.147" y="81.516"/><path style="fill:#59bfaa;fill-opacity:1;stroke-width:1.23794" id="path403" d="M 95.957126,86.625332 H 75.5686 c -1.401727,0 -2.54858,1.082357 -2.54858,2.405227 v 21.647121 l 5.097142,-4.81045 h 17.839964 c 1.401735,0 2.548568,-1.08238 2.548568,-2.40528 V 89.030559 c 0,-1.32287 -1.146833,-2.405227 -2.548568,-2.405227 z m -14.017115,10.82356 h -2.548559 v -2.405225 h 2.548559 z m 5.097143,0 H 84.48857 v -2.405225 h 2.548584 z m 5.097115,0 h -2.548553 v -2.405225 h 2.548553 z"/><path id="rect283-0" style="display:inline;fill:url(#linearGradient17878);fill-opacity:1;stroke-width:.999999" d="M 59.816406 215.77734 A 95.535228 95.535228 0 0 0 -35.037109 300.49414 L -35.037109 322.13281 A 95.535228 95.535228 0 0 0 42.511719 405.20117 L 77.121094 405.20117 A 95.535228 95.535228 0 0 0 154.96289 319.5293 L 154.96289 302.79102 A 95.535228 95.535228 0 0 0 59.816406 215.77734 z" transform="matrix(0.26458333,0,0,0.26458333,51.147327,81.515579)"/><path id="rect283-1-6" style="display:inline;fill:url(#linearGradient17874);fill-opacity:1;stroke:none;stroke-width:1.00828;stroke-opacity:1" d="M 59.816406 215.77734 A 95.535228 95.535228 0 0 0 -35.378906 303.53125 L -35.378906 319.0957 A 95.535228 95.535228 0 0 0 45.03125 405.67773 L 74.601562 405.67773 A 95.535228 95.535228 0 0 0 155.35156 311.3125 A 95.535228 95.535228 0 0 0 59.816406 215.77734 z" transform="matrix(0.26458333,0,0,0.26458333,51.147327,81.515579)"/><g aria-label="&gt;_" style="font-style:normal;font-weight:400;font-size:8.48274px;line-height:1.25;font-family:sans-serif;letter-spacing:0;word-spacing:0;display:inline;fill:#000;fill-opacity:1;stroke:none;stroke-width:.212069" id="text320-2" transform="matrix(2.3139227,0,0,2.3139227,-93.10456,-100.90518)"><path d="m 62.57046,116.77004 v -1.31201 l 3.280018,-1.45904 q 0.158346,-0.0679 0.305381,-0.1018 0.158346,-0.0452 0.282761,-0.0679 0.135725,-0.0113 0.271449,-0.0226 v -0.0905 q -0.135724,-0.0113 -0.271449,-0.0452 -0.124415,-0.0226 -0.282761,-0.0566 -0.147035,-0.0452 -0.305381,-0.1131 l -3.280018,-1.45904 v -1.32332 l 5.067063,2.31863 v 1.4138 z" style="font-style:normal;font-variant:normal;font-weight:700;font-stretch:normal;font-size:11.3104px;font-family:'JetBrains Mono';-inkscape-font-specification:'JetBrains Mono, Bold';font-variant-ligatures:normal;font-variant-caps:normal;font-variant-numeric:normal;font-feature-settings:normal;text-align:start;writing-mode:lr-tb;text-anchor:start;fill:#fff;stroke-width:.212069" id="path1011-6"/><path d="m 69.17132,117.75404 h 5.428996 v 1.27808 H 69.17132 Z" style="font-style:normal;font-variant:normal;font-weight:700;font-stretch:normal;font-size:11.3104px;font-family:'JetBrains Mono';-inkscape-font-specification:'JetBrains Mono, Bold';font-variant-ligatures:normal;font-variant-caps:normal;font-variant-numeric:normal;font-feature-settings:normal;text-align:start;writing-mode:lr-tb;text-anchor:start;fill:#fff;stroke-width:.212069" id="path1013-1"/></g><path id="path403-7" style="display:inline;fill:#59bfaa;fill-opacity:1;stroke-width:4.67883" d="M 69.447266 226.57227 C 64.149388 226.57227 59.814453 230.66229 59.814453 235.66211 L 59.814453 317.47852 L 79.078125 299.29688 L 146.50586 299.29688 C 149.5168 299.29688 152.21645 297.97435 153.98633 295.91602 A 95.535227 95.535227 0 0 0 103.46289 226.57227 L 69.447266 226.57227 z M 83.894531 258.39062 L 93.527344 258.39062 L 93.527344 267.48047 L 83.894531 267.48047 L 83.894531 258.39062 z M 103.16016 258.39062 L 112.79297 258.39062 L 112.79297 267.48047 L 103.16016 267.48047 L 103.16016 258.39062 z M 122.42383 258.39062 L 132.05664 258.39062 L 132.05664 267.48047 L 122.42383 267.48047 L 122.42383 258.39062 z" transform="matrix(0.26458333,0,0,0.26458333,51.147327,81.515579)"/></g></svg>