<svg xmlns="http://www.w3.org/2000/svg" xmlns:svg="http://www.w3.org/2000/svg" xmlns:xlink="http://www.w3.org/1999/xlink" id="svg8" width="190" height="190" version="1.1" viewBox="0 0 50.271 50.271"><defs id="defs2"><linearGradient id="linearGradient843"><stop style="stop-color:#000;stop-opacity:1" id="stop839" offset="0"/><stop style="stop-color:#434343;stop-opacity:1" id="stop841" offset="1"/></linearGradient><linearGradient id="linearGradient13321" x1="51.147" x2="101.418" y1="81.516" y2="131.786" gradientUnits="userSpaceOnUse" xlink:href="#linearGradient843"/></defs><metadata id="metadata5"/><g id="layer2" style="display:inline"><path style="opacity:1;fill:url(#linearGradient13321);fill-opacity:1;stroke-width:.264583" id="rect283" d="M 51.147327,81.515579 H 101.41816 V 131.78641 H 51.147327 Z" transform="translate(-51.147326,-81.51558)"/></g><g id="layer1" transform="translate(-51.147327,-81.515579)" style="display:inline"><g aria-label="&gt;_" style="font-style:normal;font-weight:400;font-size:8.48274px;line-height:1.25;font-family:sans-serif;letter-spacing:0;word-spacing:0;fill:#000;fill-opacity:1;stroke:none;stroke-width:.212069" id="text320" transform="matrix(1.9832225,0,0,1.9832225,-66.414375,-115.86681)"><path d="m 62.57046,116.77004 v -1.31201 l 3.280018,-1.45904 q 0.158346,-0.0679 0.305381,-0.1018 0.158346,-0.0452 0.282761,-0.0679 0.135725,-0.0113 0.271449,-0.0226 v -0.0905 q -0.135724,-0.0113 -0.271449,-0.0452 -0.124415,-0.0226 -0.282761,-0.0566 -0.147035,-0.0452 -0.305381,-0.1131 l -3.280018,-1.45904 v -1.32332 l 5.067063,2.31863 v 1.4138 z" style="font-style:normal;font-variant:normal;font-weight:700;font-stretch:normal;font-size:11.3104px;font-family:'JetBrains Mono';-inkscape-font-specification:'JetBrains Mono, Bold';font-variant-ligatures:normal;font-variant-caps:normal;font-variant-numeric:normal;font-feature-settings:normal;text-align:start;writing-mode:lr-tb;text-anchor:start;fill:#fff;stroke-width:.212069" id="path1011"/><path d="m 69.17132,117.75404 h 5.428996 v 1.27808 H 69.17132 Z" style="font-style:normal;font-variant:normal;font-weight:700;font-stretch:normal;font-size:11.3104px;font-family:'JetBrains Mono';-inkscape-font-specification:'JetBrains Mono, Bold';font-variant-ligatures:normal;font-variant-caps:normal;font-variant-numeric:normal;font-feature-settings:normal;text-align:start;writing-mode:lr-tb;text-anchor:start;fill:#fff;stroke-width:.212069" id="path1013"/></g><path style="fill:#59bfaa;fill-opacity:1;stroke-width:1.04501" id="path403" d="M 91.894724,91.209179 H 74.511981 c -1.195076,0 -2.172856,0.904643 -2.172856,2.010308 v 12.789833 l -0.922814,3.94747 5.26851,-3.19426 h 15.209903 c 1.195083,0 2.172841,-0.90465 2.172841,-2.01035 V 93.219487 c 0,-1.105665 -0.977758,-2.010308 -2.172841,-2.010308 z m -11.950639,9.046411 h -2.172837 v -2.010304 h 2.172837 z m 4.345697,0 h -2.172859 v -2.010304 h 2.172859 z m 4.34567,0 H 86.46262 v -2.010304 h 2.172832 z"/></g><g id="g18852" style="display:inline"><path id="path18850" style="opacity:1;fill:#fff;fill-opacity:1;stroke-width:.999999" d="M 0,0 V 190 H 84.177734 A 95.321232,95.321232 0 0 1 0.03320312,95.402344 95.321232,95.321232 0 0 1 95.353516,0.08007812 95.321232,95.321232 0 0 1 190,84.138672 V 0 Z M 190,106.1543 A 95.321232,95.321232 0 0 1 106.53125,190 H 190 Z" transform="scale(0.26458333)"/></g></svg>