<svg xmlns="http://www.w3.org/2000/svg" xmlns:svg="http://www.w3.org/2000/svg" xmlns:xlink="http://www.w3.org/1999/xlink" id="svg8" width="190" height="190" version="1.1" viewBox="0 0 50.271 50.271"><defs id="defs2"><linearGradient id="linearGradient843"><stop style="stop-color:#000;stop-opacity:1" id="stop839" offset="0"/><stop style="stop-color:#434343;stop-opacity:.88235295" id="stop841" offset="1"/></linearGradient><linearGradient id="linearGradient13321" x1="51.147" x2="101.418" y1="81.516" y2="131.786" gradientUnits="userSpaceOnUse" xlink:href="#linearGradient843"/></defs><metadata id="metadata5"/><g id="layer2" style="display:inline"><path style="opacity:1;fill:url(#linearGradient13321);fill-opacity:1;stroke-width:.264583" id="rect283" d="M 51.147327,81.515579 H 101.41816 V 131.78641 H 51.147327 Z" transform="translate(-51.147326,-81.51558)"/></g><g id="layer1" transform="translate(-51.147327,-81.515579)" style="display:inline"><g aria-label="&gt;_" style="font-style:normal;font-weight:400;font-size:8.48274px;line-height:1.25;font-family:sans-serif;letter-spacing:0;word-spacing:0;fill:#000;fill-opacity:1;stroke:none;stroke-width:.212069" id="text320" transform="matrix(2.1732354,0,0,2.1732354,-78.526808,-138.04762)"><path d="m 62.57046,116.77004 v -1.31201 l 3.280018,-1.45904 q 0.158346,-0.0679 0.305381,-0.1018 0.158346,-0.0452 0.282761,-0.0679 0.135725,-0.0113 0.271449,-0.0226 v -0.0905 q -0.135724,-0.0113 -0.271449,-0.0452 -0.124415,-0.0226 -0.282761,-0.0566 -0.147035,-0.0452 -0.305381,-0.1131 l -3.280018,-1.45904 v -1.32332 l 5.067063,2.31863 v 1.4138 z" style="font-style:normal;font-variant:normal;font-weight:700;font-stretch:normal;font-size:11.3104px;font-family:'JetBrains Mono';-inkscape-font-specification:'JetBrains Mono, Bold';font-variant-ligatures:normal;font-variant-caps:normal;font-variant-numeric:normal;font-feature-settings:normal;text-align:start;writing-mode:lr-tb;text-anchor:start;fill:#fff;stroke-width:.212069" id="path1011"/><path d="m 69.17132,117.75404 h 5.428996 v 1.27808 H 69.17132 Z" style="font-style:normal;font-variant:normal;font-weight:700;font-stretch:normal;font-size:11.3104px;font-family:'JetBrains Mono';-inkscape-font-specification:'JetBrains Mono, Bold';font-variant-ligatures:normal;font-variant-caps:normal;font-variant-numeric:normal;font-feature-settings:normal;text-align:start;writing-mode:lr-tb;text-anchor:start;fill:#fff;stroke-width:.212069" id="path1013"/></g><path style="fill:#59bfaa;fill-opacity:1;stroke-width:1.23794" id="path403" d="M 96.099588,85.317799 H 75.711062 c -1.401727,0 -2.54858,1.082357 -2.54858,2.405227 v 21.647124 l 5.097142,-4.81045 h 17.839964 c 1.401735,0 2.548568,-1.08238 2.548568,-2.40528 V 87.723026 c 0,-1.32287 -1.146833,-2.405227 -2.548568,-2.405227 z m -14.017115,10.82356 h -2.548559 v -2.405225 h 2.548559 z m 5.097143,0 h -2.548584 v -2.405225 h 2.548584 z m 5.097115,0 h -2.548553 v -2.405225 h 2.548553 z"/></g></svg>